<?xml version="1.0" encoding="utf-8"?>
<!-- Generator: Adobe Illustrator 22.0.1, SVG Export Plug-In . SVG Version: 6.00 Build 0)  -->
<svg version="1.1" id="Layer_1" xmlns="http://www.w3.org/2000/svg" xmlns:xlink="http://www.w3.org/1999/xlink" x="0px" y="0px"
	 viewBox="0 0 79.1 35" style="enable-background:new 0 0 79.1 35;" xml:space="preserve">
<style type="text/css">
	.st0{fill:#067EB7;}
	.st1{fill:#C25617;}
</style>
<g>
	<path class="st0" d="M6.5,7.2l2.7,7.2L12,7.2h1.1v8.2h-0.8V8.3l0,0l-2.8,7.1H8.8L6.2,8.3l0,0v7.1H5.4V7.2H6.5z"/>
	<path class="st0" d="M14.9,10.4c0.1-0.3,0.3-0.5,0.5-0.6c0.2-0.1,0.5-0.3,0.7-0.3c0.3-0.1,0.6-0.1,0.9-0.1c0.3,0,0.5,0,0.8,0.1
		s0.5,0.1,0.7,0.3c0.2,0.1,0.4,0.3,0.5,0.6c0.1,0.3,0.2,0.6,0.2,1v3.2c0,0.3,0.1,0.5,0.4,0.5c0.1,0,0.1,0,0.3-0.1v0.6
		c-0.1,0-0.1,0-0.2,0.1c-0.1,0-0.1,0-0.3,0c-0.2,0-0.3,0-0.5-0.1s-0.2-0.1-0.3-0.2c-0.1-0.1-0.1-0.2-0.1-0.3c0-0.1,0-0.3,0-0.4l0,0
		c-0.1,0.2-0.3,0.4-0.4,0.5c-0.1,0.1-0.3,0.3-0.5,0.4c-0.2,0.1-0.3,0.2-0.6,0.3c-0.2,0.1-0.5,0.1-0.7,0.1c-0.3,0-0.5,0-0.8-0.1
		c-0.3-0.1-0.5-0.2-0.7-0.3c-0.2-0.1-0.3-0.3-0.4-0.5c-0.1-0.2-0.1-0.5-0.1-0.8c0-0.4,0.1-0.7,0.3-1c0.2-0.3,0.4-0.4,0.7-0.5
		c0.3-0.1,0.7-0.2,1.1-0.3c0.4-0.1,0.8-0.1,1.2-0.1c0.1,0,0.3-0.1,0.4-0.1c0.1,0,0.2-0.1,0.3-0.1c0.1-0.1,0.1-0.1,0.2-0.3
		c0.1-0.1,0.1-0.3,0.1-0.4c0-0.3-0.1-0.5-0.1-0.6c-0.1-0.1-0.2-0.3-0.3-0.4c-0.1-0.1-0.3-0.1-0.5-0.2S17.3,10,17.1,10
		c-0.5,0-0.9,0.1-1.1,0.3c-0.3,0.2-0.5,0.6-0.5,1.1h-0.7C14.7,11,14.7,10.7,14.9,10.4z M18.5,12.2c-0.1,0.1-0.1,0.1-0.3,0.2
		c-0.1,0.1-0.3,0.1-0.3,0.1c-0.3,0.1-0.6,0.1-0.9,0.1c-0.3,0.1-0.6,0.1-0.9,0.2c-0.3,0.1-0.5,0.2-0.7,0.4c-0.2,0.1-0.3,0.4-0.3,0.7
		c0,0.2,0.1,0.3,0.1,0.5c0.1,0.1,0.2,0.3,0.3,0.4c0.1,0.1,0.3,0.2,0.4,0.3c0.1,0.1,0.3,0.1,0.5,0.1c0.3,0,0.5-0.1,0.8-0.1
		c0.3-0.1,0.5-0.2,0.7-0.4c0.2-0.1,0.3-0.3,0.5-0.6c0.1-0.2,0.2-0.5,0.2-0.8L18.5,12.2L18.5,12.2z"/>
	<path class="st0" d="M21.4,9.5v1.1l0,0c0.1-0.3,0.4-0.7,0.7-0.9c0.3-0.2,0.7-0.3,1.2-0.3c0.4,0,0.8,0.1,1.1,0.1
		c0.3,0.1,0.5,0.3,0.7,0.5c0.2,0.2,0.3,0.5,0.3,0.7c0.1,0.3,0.1,0.6,0.1,1v3.8h-0.7v-3.7c0-0.3,0-0.5-0.1-0.7
		c-0.1-0.2-0.1-0.4-0.3-0.6c-0.1-0.1-0.3-0.3-0.5-0.4C23.8,10,23.5,10,23.2,10s-0.5,0.1-0.8,0.1c-0.2,0.1-0.4,0.3-0.6,0.4
		c-0.1,0.2-0.3,0.4-0.4,0.7c-0.1,0.3-0.1,0.5-0.1,0.8v3.5h-0.7V9.5C20.6,9.5,21.4,9.5,21.4,9.5z"/>
	<path class="st0" d="M31,15.4v-1.1l0,0c-0.2,0.4-0.5,0.7-0.9,0.9c-0.4,0.2-0.8,0.3-1.2,0.3s-0.7-0.1-1-0.1
		c-0.3-0.1-0.5-0.3-0.7-0.5c-0.2-0.2-0.3-0.4-0.4-0.7s-0.1-0.6-0.1-1V9.4h0.7v3.9c0,0.5,0.1,0.9,0.4,1.3c0.3,0.3,0.7,0.4,1.2,0.4
		c0.3,0,0.6-0.1,0.8-0.2c0.2-0.1,0.4-0.3,0.5-0.5c0.1-0.2,0.3-0.5,0.3-0.8c0.1-0.3,0.1-0.6,0.1-0.9V9.5h0.7v5.9
		C31.7,15.4,31,15.4,31,15.4z"/>
	<path class="st0" d="M33.6,13.5c0.1,0.3,0.2,0.5,0.3,0.7c0.1,0.2,0.4,0.4,0.6,0.5c0.3,0.1,0.5,0.2,0.9,0.2c0.5,0,0.9-0.1,1.3-0.4
		c0.3-0.3,0.5-0.7,0.6-1.1h0.9c-0.1,0.7-0.5,1.2-0.9,1.6s-1,0.5-1.8,0.5c-0.5,0-0.9-0.1-1.2-0.3s-0.6-0.4-0.9-0.7
		c-0.2-0.3-0.4-0.6-0.5-1c-0.1-0.3-0.1-0.7-0.1-1.1c0-0.4,0.1-0.8,0.1-1.1c0.1-0.4,0.3-0.7,0.5-1c0.2-0.3,0.5-0.5,0.9-0.7
		c0.3-0.2,0.7-0.3,1.2-0.3s0.9,0.1,1.3,0.3c0.3,0.2,0.6,0.5,0.9,0.7c0.2,0.3,0.4,0.7,0.5,1.1c0.1,0.4,0.1,0.9,0.1,1.3h-4.5
		C33.5,12.9,33.5,13.2,33.6,13.5z M37.2,11.3c-0.1-0.3-0.2-0.5-0.4-0.7c-0.2-0.2-0.3-0.3-0.6-0.5S35.7,10,35.4,10s-0.6,0.1-0.8,0.2
		c-0.3,0.1-0.4,0.3-0.6,0.5c-0.1,0.2-0.3,0.4-0.4,0.7c-0.1,0.3-0.1,0.5-0.2,0.8h3.8C37.3,11.7,37.3,11.5,37.2,11.3z"/>
	<path class="st0" d="M39.8,7.2v8.2H39V7.2H39.8z"/>
	<path class="st0" d="M45.3,7.2v7.6h4.6v0.7h-5.4V7.2H45.3z"/>
	<path class="st0" d="M54.2,9.6c0.3,0.2,0.7,0.4,0.9,0.7c0.3,0.3,0.4,0.6,0.5,1c0.1,0.4,0.2,0.8,0.2,1.2c0,0.5-0.1,0.9-0.2,1.2
		c-0.1,0.4-0.3,0.7-0.5,1c-0.3,0.3-0.5,0.5-0.9,0.7c-0.3,0.2-0.7,0.3-1.2,0.3c-0.5,0-0.9-0.1-1.2-0.3c-0.3-0.2-0.7-0.4-0.9-0.7
		c-0.3-0.3-0.4-0.6-0.5-1c-0.1-0.4-0.2-0.8-0.2-1.2c0-0.5,0.1-0.9,0.2-1.2c0.1-0.4,0.3-0.7,0.5-1c0.3-0.3,0.5-0.5,0.9-0.7
		c0.3-0.2,0.7-0.3,1.2-0.3C53.5,9.3,53.9,9.4,54.2,9.6z M52.1,10.2c-0.3,0.1-0.5,0.3-0.7,0.6s-0.3,0.5-0.4,0.8
		C51,11.9,51,12.1,51,12.5c0,0.3,0.1,0.6,0.1,0.9c0.1,0.3,0.2,0.6,0.4,0.8c0.2,0.3,0.4,0.5,0.7,0.6s0.6,0.2,0.9,0.2s0.7-0.1,0.9-0.2
		s0.5-0.3,0.7-0.6c0.2-0.3,0.3-0.5,0.4-0.8c0.1-0.3,0.1-0.6,0.1-0.9c0-0.3-0.1-0.6-0.1-0.9s-0.2-0.6-0.4-0.8
		c-0.2-0.3-0.4-0.5-0.7-0.6S53.4,10,53.1,10S52.4,10,52.1,10.2z M52.4,8.6L53.6,7h0.9L53,8.6H52.4z"/>
	<path class="st0" d="M57.6,9.5v1.1l0,0c0.2-0.4,0.5-0.7,0.9-1c0.4-0.2,0.8-0.3,1.3-0.3c0.5,0,0.9,0.1,1.2,0.3
		c0.3,0.2,0.6,0.4,0.9,0.7c0.2,0.3,0.4,0.6,0.5,1c0.1,0.4,0.1,0.9,0.1,1.3c0,0.4-0.1,0.9-0.1,1.2c-0.1,0.4-0.3,0.7-0.5,1
		c-0.3,0.3-0.5,0.5-0.9,0.7c-0.3,0.2-0.7,0.3-1.2,0.3c-0.2,0-0.5,0-0.7-0.1c-0.2-0.1-0.4-0.1-0.6-0.3S58.1,15,58,14.8
		c-0.1-0.1-0.3-0.3-0.3-0.6l0,0v3.3h-0.7v-8H57.6z M61.6,11.5c-0.1-0.3-0.2-0.6-0.3-0.8c-0.1-0.3-0.3-0.5-0.6-0.6
		C60.4,10,60.2,10,59.8,10c-0.4,0-0.7,0.1-1,0.2c-0.3,0.1-0.5,0.3-0.7,0.5c-0.1,0.3-0.3,0.5-0.3,0.8c-0.1,0.3-0.1,0.7-0.1,1
		c0,0.3,0.1,0.6,0.1,0.9s0.2,0.6,0.3,0.8c0.2,0.3,0.4,0.5,0.7,0.6c0.3,0.1,0.6,0.2,1,0.2c0.3,0,0.7-0.1,0.9-0.2
		c0.3-0.1,0.5-0.3,0.6-0.6c0.1-0.3,0.3-0.5,0.3-0.8c0.1-0.3,0.1-0.6,0.1-0.9C61.7,12.1,61.7,11.9,61.6,11.5z"/>
	<path class="st0" d="M64.1,13.5c0.1,0.3,0.2,0.5,0.3,0.7c0.1,0.2,0.4,0.4,0.6,0.5c0.3,0.1,0.5,0.2,0.9,0.2c0.5,0,0.9-0.1,1.3-0.4
		c0.3-0.3,0.5-0.7,0.6-1.1h0.7C68.3,14,68,14.6,67.6,15s-1,0.5-1.8,0.5c-0.5,0-0.9-0.1-1.2-0.3c-0.3-0.2-0.6-0.4-0.9-0.7
		c-0.2-0.3-0.4-0.6-0.5-1c-0.1-0.4-0.1-0.8-0.1-1.2c0-0.4,0.1-0.8,0.1-1.1c0.1-0.4,0.3-0.7,0.5-1c0.2-0.3,0.5-0.5,0.9-0.7
		c0.3-0.2,0.7-0.3,1.2-0.3s0.9,0.1,1.3,0.3c0.3,0.2,0.6,0.5,0.9,0.7c0.2,0.3,0.4,0.7,0.5,1.1s0.1,0.8,0.1,1.3H64
		C64,12.9,64.1,13.2,64.1,13.5z M67.7,11.3c-0.1-0.3-0.2-0.5-0.4-0.7s-0.3-0.3-0.6-0.5C66.4,10,66.2,10,65.9,10s-0.6,0.1-0.8,0.2
		c-0.3,0.1-0.4,0.3-0.6,0.5c-0.1,0.2-0.3,0.4-0.4,0.7c-0.1,0.3-0.1,0.5-0.2,0.8h3.8C67.8,11.7,67.8,11.5,67.7,11.3z"/>
	<path class="st0" d="M74,14.8v0.6h-4.9v-0.6l3.9-4.7h-3.6V9.5h4.5V10l-4,4.8C69.9,14.8,74,14.8,74,14.8z"/>
	<path class="st1" d="M21.5,21v3.6h4.3V21H27v8.2h-1.1v-3.8h-4.3v3.8h-1.1V21H21.5z"/>
	<path class="st1" d="M28.6,22.2V21h1v1.2H28.6z M29.6,23.3v5.9h-1v-5.9H29.6z"/>
	<path class="st1" d="M35.5,29.3v-0.8l0,0c-0.1,0.3-0.4,0.6-0.8,0.7c-0.3,0.1-0.7,0.2-1.1,0.2c-0.5,0-0.9-0.1-1.2-0.3
		c-0.3-0.2-0.7-0.4-0.9-0.7c-0.2-0.3-0.4-0.6-0.5-1s-0.2-0.8-0.2-1.2s0.1-0.8,0.2-1.2c0.1-0.4,0.3-0.7,0.5-1
		c0.2-0.3,0.5-0.5,0.9-0.7c0.3-0.2,0.7-0.3,1.2-0.3c0.1,0,0.3,0,0.5,0.1c0.2,0,0.3,0.1,0.5,0.1c0.2,0.1,0.3,0.2,0.5,0.3
		c0.1,0.1,0.3,0.3,0.4,0.5l0,0V21h1v8.2H35.5z M32,27.1c0.1,0.3,0.2,0.5,0.3,0.7c0.1,0.2,0.3,0.4,0.6,0.5s0.5,0.2,0.9,0.2
		s0.6-0.1,0.9-0.2c0.2-0.1,0.4-0.3,0.6-0.5c0.2-0.2,0.3-0.5,0.3-0.7c0.1-0.3,0.1-0.5,0.1-0.8c0-0.3-0.1-0.6-0.1-0.9
		c-0.1-0.3-0.2-0.5-0.3-0.7c-0.1-0.2-0.3-0.4-0.6-0.5s-0.5-0.2-0.9-0.2c-0.3,0-0.6,0.1-0.9,0.2c-0.3,0.1-0.4,0.3-0.5,0.5
		c-0.1,0.2-0.3,0.5-0.3,0.7c-0.1,0.3-0.1,0.6-0.1,0.9C31.9,26.6,31.9,26.9,32,27.1z"/>
	<path class="st1" d="M43.3,29.3c-0.2,0.1-0.4,0.1-0.7,0.1c-0.3,0-0.5-0.1-0.6-0.2c-0.1-0.1-0.2-0.4-0.2-0.7
		c-0.3,0.3-0.6,0.5-0.9,0.7c-0.4,0.1-0.8,0.2-1.2,0.2c-0.3,0-0.5,0-0.8-0.1s-0.5-0.1-0.7-0.3c-0.2-0.1-0.3-0.3-0.4-0.5
		c-0.1-0.2-0.1-0.5-0.1-0.8c0-0.3,0.1-0.6,0.2-0.9c0.1-0.2,0.3-0.4,0.5-0.5c0.2-0.1,0.4-0.3,0.7-0.3c0.3-0.1,0.5-0.1,0.7-0.2
		s0.5-0.1,0.8-0.1c0.3,0,0.5-0.1,0.7-0.1c0.2-0.1,0.3-0.1,0.5-0.2c0.1-0.1,0.1-0.3,0.1-0.4c0-0.2-0.1-0.4-0.1-0.5s-0.2-0.3-0.3-0.3
		C41.1,24.1,41,24,40.9,24c-0.1,0-0.3-0.1-0.5-0.1c-0.4,0-0.8,0.1-1.1,0.3c-0.3,0.1-0.4,0.5-0.5,0.9h-1c0-0.4,0.1-0.7,0.2-0.9
		c0.1-0.3,0.3-0.5,0.5-0.6c0.3-0.1,0.5-0.3,0.8-0.3c0.3-0.1,0.6-0.1,0.9-0.1c0.3,0,0.5,0,0.8,0.1s0.5,0.1,0.7,0.3
		c0.2,0.1,0.4,0.3,0.5,0.5c0.1,0.2,0.2,0.5,0.2,0.9v3c0,0.2,0,0.4,0.1,0.5c0,0.1,0.1,0.1,0.3,0.1c0.1,0,0.2,0,0.3-0.1V29.3z
		 M41.7,26.2c-0.1,0.1-0.3,0.1-0.5,0.2c-0.2,0.1-0.4,0.1-0.7,0.1c-0.2,0-0.5,0.1-0.7,0.1c-0.2,0.1-0.4,0.1-0.6,0.2
		c-0.2,0.1-0.3,0.2-0.5,0.3c-0.1,0.1-0.1,0.3-0.1,0.6c0,0.1,0,0.3,0.1,0.4s0.1,0.2,0.3,0.3c0.1,0.1,0.2,0.1,0.4,0.1
		c0.1,0,0.3,0.1,0.5,0.1c0.3,0,0.6-0.1,0.9-0.1c0.2-0.1,0.4-0.2,0.6-0.3c0.1-0.1,0.3-0.3,0.3-0.5c0.1-0.2,0.1-0.3,0.1-0.5v-1H41.7z"
		/>
	<path class="st1" d="M45.2,21v8.2h-1V21H45.2z"/>
	<path class="st1" d="M51.2,31c-0.5,0.5-1.1,0.7-2.1,0.7c-0.3,0-0.5,0-0.9-0.1s-0.5-0.1-0.8-0.3c-0.3-0.2-0.5-0.3-0.6-0.5
		c-0.1-0.2-0.3-0.5-0.3-0.8h1c0,0.2,0.1,0.3,0.2,0.5c0.1,0.1,0.2,0.2,0.4,0.3s0.3,0.1,0.5,0.2C48.9,31,49,31,49.2,31
		c0.3,0,0.6-0.1,0.8-0.2c0.2-0.1,0.4-0.3,0.5-0.5c0.1-0.2,0.3-0.5,0.3-0.7s0.1-0.6,0.1-0.9v-0.4l0,0c-0.2,0.4-0.4,0.7-0.8,0.8
		c-0.3,0.2-0.7,0.3-1.1,0.3c-0.5,0-0.9-0.1-1.2-0.3c-0.3-0.1-0.6-0.4-0.9-0.7c-0.2-0.3-0.4-0.6-0.5-1c-0.1-0.4-0.2-0.7-0.2-1.2
		c0-0.3,0.1-0.7,0.1-1.1c0.1-0.4,0.3-0.7,0.5-1c0.2-0.3,0.5-0.5,0.9-0.7c0.3-0.2,0.8-0.3,1.3-0.3c0.4,0,0.7,0.1,1.1,0.3
		c0.3,0.2,0.6,0.4,0.7,0.7l0,0v-0.9h1.1v5.4C51.9,29.7,51.6,30.4,51.2,31z M50,28.3c0.2-0.1,0.4-0.3,0.5-0.5
		c0.1-0.2,0.3-0.5,0.3-0.7c0.1-0.3,0.1-0.5,0.1-0.9c0-0.3,0-0.5-0.1-0.8c-0.1-0.3-0.1-0.5-0.3-0.7c-0.1-0.2-0.3-0.4-0.5-0.5
		c-0.2-0.1-0.5-0.2-0.8-0.2s-0.6,0.1-0.8,0.2c-0.2,0.1-0.4,0.3-0.5,0.5s-0.3,0.5-0.3,0.7c-0.1,0.2-0.1,0.5-0.1,0.8
		c0,0.3,0,0.5,0.1,0.8c0.1,0.3,0.1,0.5,0.3,0.7c0.1,0.2,0.3,0.4,0.5,0.5c0.2,0.1,0.5,0.2,0.8,0.2S49.7,28.4,50,28.3z"/>
	<path class="st1" d="M53.2,25c0.1-0.4,0.3-0.7,0.5-1c0.3-0.3,0.5-0.5,0.9-0.7c0.3-0.1,0.8-0.3,1.3-0.3c0.5,0,0.9,0.1,1.3,0.3
		c0.3,0.1,0.7,0.4,0.9,0.7c0.3,0.3,0.5,0.6,0.5,1c0.1,0.4,0.2,0.8,0.2,1.3c0,0.5-0.1,0.9-0.2,1.3c-0.1,0.4-0.3,0.7-0.5,1
		c-0.3,0.3-0.5,0.5-0.9,0.7c-0.3,0.1-0.8,0.3-1.3,0.3c-0.5,0-0.9-0.1-1.3-0.3c-0.3-0.1-0.7-0.4-0.9-0.7c-0.3-0.3-0.5-0.6-0.5-1
		c-0.1-0.4-0.2-0.8-0.2-1.3C53,25.8,53.1,25.4,53.2,25z M54.2,27.3c0.1,0.3,0.2,0.5,0.4,0.7c0.2,0.2,0.4,0.3,0.6,0.5
		c0.2,0.1,0.5,0.1,0.7,0.1s0.5-0.1,0.7-0.1c0.2-0.1,0.4-0.3,0.6-0.5c0.2-0.2,0.3-0.4,0.4-0.7c0.1-0.3,0.1-0.6,0.1-1
		c0-0.3-0.1-0.7-0.1-1c-0.1-0.3-0.2-0.5-0.4-0.7c-0.2-0.2-0.4-0.3-0.6-0.5S56.2,24,55.9,24s-0.5,0.1-0.7,0.1
		c-0.2,0.1-0.4,0.3-0.6,0.5c-0.2,0.2-0.3,0.5-0.4,0.7c-0.1,0.3-0.1,0.6-0.1,1C54.1,26.6,54.1,26.9,54.2,27.3z"/>
</g>
</svg>
