<?xml version="1.0" encoding="utf-8"?>
<!-- Generator: Adobe Illustrator 22.0.1, SVG Export Plug-In . SVG Version: 6.00 Build 0)  -->
<svg version="1.1" id="Layer_1" xmlns="http://www.w3.org/2000/svg" xmlns:xlink="http://www.w3.org/1999/xlink" x="0px" y="0px"
	 viewBox="0 0 114 54" style="enable-background:new 0 0 114 54;" xml:space="preserve">
<style type="text/css">
	.st0{fill:#067EB7;}
	.st1{fill:#C25617;}
</style>
<g>
	<path class="st0" d="M7.1,7.3l4.1,11l4.3-11h1.7v12.5h-1.2V9h0l-4.3,10.8h-1.1L6.6,9h0v10.8H5.4V7.3H7.1z"/>
	<path class="st0" d="M19.8,12.2c0.2-0.4,0.4-0.7,0.8-0.9c0.3-0.2,0.7-0.4,1.1-0.5c0.4-0.1,0.9-0.2,1.4-0.2c0.4,0,0.8,0,1.2,0.1
		c0.4,0.1,0.8,0.2,1.1,0.4s0.6,0.5,0.8,0.9c0.2,0.4,0.3,0.9,0.3,1.5v4.8c0,0.4,0.2,0.7,0.6,0.7c0.1,0,0.2,0,0.4-0.1v0.9
		c-0.1,0-0.2,0-0.3,0.1c-0.1,0-0.2,0-0.4,0c-0.3,0-0.5,0-0.7-0.1c-0.2-0.1-0.3-0.2-0.4-0.3c-0.1-0.1-0.2-0.3-0.2-0.5
		c0-0.2,0-0.4,0-0.6h0c-0.2,0.3-0.4,0.6-0.6,0.8c-0.2,0.2-0.4,0.4-0.7,0.6c-0.3,0.2-0.5,0.3-0.9,0.4c-0.3,0.1-0.7,0.1-1.1,0.1
		c-0.4,0-0.8,0-1.2-0.1c-0.4-0.1-0.7-0.3-1-0.5s-0.5-0.5-0.6-0.8c-0.2-0.3-0.2-0.7-0.2-1.2c0-0.6,0.1-1.1,0.4-1.5
		c0.3-0.4,0.6-0.6,1.1-0.8c0.5-0.2,1-0.3,1.6-0.4c0.6-0.1,1.2-0.1,1.8-0.2c0.2,0,0.4-0.1,0.6-0.1c0.2,0,0.3-0.1,0.4-0.2
		c0.1-0.1,0.2-0.2,0.3-0.4c0.1-0.2,0.1-0.4,0.1-0.6c0-0.4-0.1-0.7-0.2-0.9c-0.1-0.2-0.3-0.4-0.5-0.6s-0.5-0.2-0.8-0.3
		c-0.3-0.1-0.6-0.1-0.9-0.1c-0.7,0-1.3,0.2-1.7,0.5c-0.4,0.3-0.7,0.9-0.7,1.6h-1.1C19.5,13,19.6,12.6,19.8,12.2z M25.3,14.9
		c-0.1,0.1-0.2,0.2-0.4,0.3c-0.2,0.1-0.4,0.1-0.5,0.1c-0.5,0.1-0.9,0.2-1.4,0.2c-0.5,0.1-0.9,0.2-1.4,0.3c-0.4,0.1-0.7,0.3-1,0.6
		c-0.3,0.2-0.4,0.6-0.4,1c0,0.3,0.1,0.5,0.2,0.7c0.1,0.2,0.3,0.4,0.4,0.6c0.2,0.2,0.4,0.3,0.6,0.4s0.5,0.1,0.8,0.1
		c0.4,0,0.8-0.1,1.2-0.2c0.4-0.1,0.7-0.3,1-0.6c0.3-0.2,0.5-0.5,0.7-0.9c0.2-0.3,0.3-0.7,0.3-1.2L25.3,14.9L25.3,14.9z"/>
	<path class="st0" d="M29.7,10.8v1.6h0c0.2-0.5,0.6-1,1.1-1.3c0.5-0.3,1.1-0.5,1.8-0.5c0.6,0,1.2,0.1,1.6,0.2c0.4,0.2,0.8,0.4,1,0.7
		c0.3,0.3,0.4,0.7,0.5,1.1s0.2,0.9,0.2,1.5v5.8h-1.1v-5.6c0-0.4,0-0.7-0.1-1.1c-0.1-0.3-0.2-0.6-0.4-0.9c-0.2-0.2-0.4-0.4-0.7-0.6
		c-0.3-0.1-0.7-0.2-1.1-0.2s-0.8,0.1-1.2,0.2c-0.3,0.2-0.6,0.4-0.9,0.6c-0.2,0.3-0.4,0.6-0.6,1s-0.2,0.8-0.2,1.2v5.3h-1.1v-9H29.7z"
		/>
	<path class="st0" d="M44.3,19.8v-1.6h0c-0.3,0.6-0.7,1.1-1.3,1.4c-0.6,0.3-1.2,0.5-1.8,0.5c-0.6,0-1.1-0.1-1.5-0.2
		c-0.4-0.2-0.7-0.4-1-0.7c-0.3-0.3-0.4-0.6-0.6-1.1S38,17.2,38,16.6v-5.9h1.1v5.9c0,0.8,0.2,1.4,0.6,1.9c0.4,0.4,1,0.6,1.8,0.6
		c0.5,0,0.9-0.1,1.2-0.3c0.3-0.2,0.6-0.5,0.8-0.8c0.2-0.3,0.4-0.7,0.5-1.2c0.1-0.4,0.2-0.9,0.2-1.3v-4.7h1.1v9H44.3z"/>
	<path class="st0" d="M48.2,16.8c0.1,0.4,0.3,0.8,0.5,1.1s0.6,0.6,0.9,0.8c0.4,0.2,0.8,0.3,1.3,0.3c0.8,0,1.4-0.2,1.9-0.6
		c0.5-0.4,0.8-1,0.9-1.7H55c-0.2,1-0.7,1.8-1.3,2.4c-0.6,0.6-1.5,0.8-2.7,0.8c-0.7,0-1.3-0.1-1.8-0.4c-0.5-0.3-0.9-0.6-1.3-1
		c-0.3-0.4-0.6-0.9-0.7-1.5C47,16.5,47,15.9,47,15.3c0-0.6,0.1-1.2,0.2-1.7c0.2-0.6,0.4-1.1,0.7-1.5c0.3-0.4,0.7-0.8,1.3-1.1
		c0.5-0.3,1.1-0.4,1.8-0.4c0.7,0,1.3,0.1,1.9,0.4c0.5,0.3,0.9,0.7,1.3,1.1c0.3,0.5,0.6,1,0.7,1.6C55,14.3,55,15,55,15.6h-6.9
		C48.1,16,48.1,16.4,48.2,16.8z M53.7,13.5c-0.1-0.4-0.3-0.7-0.6-1s-0.5-0.5-0.9-0.7c-0.4-0.2-0.7-0.3-1.2-0.3
		c-0.5,0-0.9,0.1-1.2,0.3c-0.4,0.2-0.6,0.4-0.9,0.7c-0.2,0.3-0.4,0.6-0.6,1c-0.1,0.4-0.2,0.8-0.3,1.2h5.8
		C53.9,14.2,53.8,13.8,53.7,13.5z"/>
	<path class="st0" d="M57.6,7.3v12.5h-1.1V7.3H57.6z"/>
	<path class="st0" d="M66,7.3v11.5h7v1h-8.2V7.3H66z"/>
	<path class="st0" d="M79.6,10.9c0.5,0.3,1,0.6,1.3,1c0.4,0.4,0.6,0.9,0.8,1.5c0.2,0.6,0.3,1.2,0.3,1.8c0,0.7-0.1,1.3-0.3,1.8
		c-0.2,0.6-0.5,1.1-0.8,1.5c-0.4,0.4-0.8,0.8-1.3,1c-0.5,0.3-1.1,0.4-1.8,0.4c-0.7,0-1.3-0.1-1.8-0.4c-0.5-0.3-1-0.6-1.3-1
		c-0.4-0.4-0.6-0.9-0.8-1.5c-0.2-0.6-0.3-1.2-0.3-1.8c0-0.7,0.1-1.3,0.3-1.8c0.2-0.6,0.5-1.1,0.8-1.5c0.4-0.4,0.8-0.8,1.3-1
		c0.5-0.3,1.1-0.4,1.8-0.4C78.5,10.5,79.1,10.6,79.6,10.9z M76.4,11.8c-0.4,0.2-0.7,0.5-1,0.9c-0.3,0.4-0.5,0.8-0.6,1.2
		c-0.1,0.5-0.2,0.9-0.2,1.4c0,0.5,0.1,0.9,0.2,1.4c0.1,0.5,0.3,0.9,0.6,1.2c0.3,0.4,0.6,0.7,1,0.9s0.9,0.3,1.4,0.3s1-0.1,1.4-0.3
		s0.7-0.5,1-0.9c0.3-0.4,0.5-0.8,0.6-1.2c0.1-0.5,0.2-0.9,0.2-1.4c0-0.5-0.1-0.9-0.2-1.4c-0.1-0.5-0.3-0.9-0.6-1.2
		c-0.3-0.4-0.6-0.7-1-0.9c-0.4-0.2-0.9-0.3-1.4-0.3S76.8,11.6,76.4,11.8z M76.8,9.5l1.8-2.5H80l-2.3,2.5H76.8z"/>
	<path class="st0" d="M84.7,10.8v1.7h0c0.3-0.6,0.7-1.1,1.3-1.5c0.6-0.3,1.2-0.5,2-0.5c0.7,0,1.3,0.1,1.8,0.4c0.5,0.3,0.9,0.6,1.3,1
		c0.3,0.4,0.6,0.9,0.8,1.5C92,14,92,14.7,92,15.3c0,0.6-0.1,1.3-0.2,1.8c-0.2,0.6-0.4,1.1-0.8,1.5s-0.8,0.8-1.3,1
		c-0.5,0.3-1.1,0.4-1.8,0.4c-0.3,0-0.7,0-1-0.1c-0.3-0.1-0.6-0.2-0.9-0.4c-0.3-0.2-0.5-0.4-0.7-0.6c-0.2-0.2-0.4-0.5-0.5-0.9h0v5
		h-1.1V10.8H84.7z M90.8,13.9c-0.1-0.5-0.3-0.9-0.5-1.2c-0.2-0.4-0.5-0.7-0.9-0.9c-0.4-0.2-0.8-0.3-1.3-0.3c-0.6,0-1.1,0.1-1.5,0.3
		s-0.7,0.5-1,0.8c-0.2,0.4-0.4,0.8-0.5,1.2c-0.1,0.5-0.1,1-0.1,1.5c0,0.5,0.1,0.9,0.2,1.4c0.1,0.5,0.3,0.9,0.5,1.2
		c0.3,0.4,0.6,0.7,1,0.9c0.4,0.2,0.9,0.3,1.5,0.3c0.5,0,1-0.1,1.3-0.3c0.4-0.2,0.7-0.5,0.9-0.9c0.2-0.4,0.4-0.8,0.5-1.2
		c0.1-0.5,0.2-0.9,0.2-1.4C90.9,14.8,90.9,14.4,90.8,13.9z"/>
	<path class="st0" d="M94.6,16.8c0.1,0.4,0.3,0.8,0.5,1.1s0.6,0.6,0.9,0.8c0.4,0.2,0.8,0.3,1.3,0.3c0.8,0,1.4-0.2,1.9-0.6
		c0.5-0.4,0.8-1,0.9-1.7h1.1c-0.2,1-0.7,1.8-1.3,2.4c-0.6,0.6-1.5,0.8-2.7,0.8c-0.7,0-1.3-0.1-1.8-0.4c-0.5-0.3-0.9-0.6-1.3-1
		c-0.3-0.4-0.6-0.9-0.7-1.5c-0.2-0.6-0.2-1.2-0.2-1.8c0-0.6,0.1-1.2,0.2-1.7c0.2-0.6,0.4-1.1,0.7-1.5c0.3-0.4,0.7-0.8,1.3-1.1
		c0.5-0.3,1.1-0.4,1.8-0.4c0.7,0,1.3,0.1,1.9,0.4c0.5,0.3,0.9,0.7,1.3,1.1c0.3,0.5,0.6,1,0.7,1.6c0.1,0.6,0.2,1.2,0.2,1.9h-6.9
		C94.4,16,94.5,16.4,94.6,16.8z M100,13.5c-0.1-0.4-0.3-0.7-0.6-1s-0.5-0.5-0.9-0.7c-0.4-0.2-0.7-0.3-1.2-0.3
		c-0.5,0-0.9,0.1-1.2,0.3c-0.4,0.2-0.6,0.4-0.9,0.7c-0.2,0.3-0.4,0.6-0.6,1c-0.1,0.4-0.2,0.8-0.3,1.2h5.8
		C100.2,14.2,100.2,13.8,100,13.5z"/>
	<path class="st0" d="M109.6,18.9v0.9h-7.5v-0.9l5.9-7.2h-5.5v-0.9h6.9v0.8l-6,7.3H109.6z"/>
	<path class="st1" d="M29.9,28.3v5.4h6.6v-5.4h1.7v12.5h-1.7v-5.7h-6.6v5.7h-1.7V28.3H29.9z"/>
	<path class="st1" d="M40.7,30.1v-1.8h1.5v1.8H40.7z M42.2,31.8v9h-1.5v-9H42.2z"/>
	<path class="st1" d="M51.1,40.8v-1.2h0c-0.2,0.5-0.6,0.9-1.2,1.1c-0.5,0.2-1.1,0.3-1.7,0.3c-0.7,0-1.3-0.1-1.8-0.4s-1-0.6-1.3-1
		c-0.3-0.4-0.6-0.9-0.8-1.5c-0.2-0.6-0.3-1.2-0.3-1.8s0.1-1.2,0.3-1.8c0.2-0.6,0.4-1.1,0.8-1.5c0.3-0.4,0.8-0.8,1.3-1
		c0.5-0.3,1.1-0.4,1.8-0.4c0.2,0,0.5,0,0.8,0.1c0.3,0,0.5,0.1,0.8,0.2c0.3,0.1,0.5,0.3,0.8,0.4c0.2,0.2,0.4,0.4,0.6,0.7h0v-4.7h1.5
		v12.5H51.1z M45.8,37.6c0.1,0.4,0.3,0.8,0.5,1.1s0.5,0.6,0.9,0.8c0.4,0.2,0.8,0.3,1.3,0.3c0.5,0,0.9-0.1,1.3-0.3
		c0.3-0.2,0.6-0.5,0.9-0.8s0.4-0.7,0.5-1.1c0.1-0.4,0.1-0.8,0.1-1.2c0-0.4-0.1-0.9-0.2-1.3s-0.3-0.8-0.5-1.1
		c-0.2-0.3-0.5-0.6-0.9-0.8c-0.4-0.2-0.8-0.3-1.3-0.3c-0.5,0-0.9,0.1-1.3,0.3s-0.6,0.5-0.8,0.8c-0.2,0.3-0.4,0.7-0.5,1.1
		s-0.1,0.9-0.1,1.3C45.6,36.8,45.7,37.2,45.8,37.6z"/>
	<path class="st1" d="M62.9,40.8c-0.3,0.2-0.6,0.2-1.1,0.2c-0.4,0-0.7-0.1-0.9-0.3c-0.2-0.2-0.3-0.6-0.3-1.1
		c-0.4,0.5-0.9,0.8-1.4,1.1C58.6,40.9,58,41,57.4,41c-0.4,0-0.8,0-1.2-0.1c-0.4-0.1-0.7-0.2-1-0.4c-0.3-0.2-0.5-0.5-0.6-0.8
		c-0.2-0.3-0.2-0.7-0.2-1.2c0-0.5,0.1-0.9,0.3-1.3c0.2-0.3,0.4-0.6,0.7-0.8c0.3-0.2,0.6-0.4,1-0.5c0.4-0.1,0.7-0.2,1.1-0.3
		c0.4-0.1,0.8-0.1,1.2-0.2c0.4,0,0.7-0.1,1-0.2s0.5-0.2,0.7-0.3c0.2-0.1,0.2-0.4,0.2-0.6c0-0.3-0.1-0.6-0.2-0.8s-0.3-0.4-0.5-0.5
		c-0.2-0.1-0.4-0.2-0.6-0.2c-0.2,0-0.5-0.1-0.7-0.1c-0.6,0-1.2,0.1-1.6,0.4c-0.4,0.2-0.6,0.7-0.7,1.4h-1.5c0-0.6,0.1-1,0.3-1.4
		c0.2-0.4,0.5-0.7,0.8-0.9c0.4-0.2,0.7-0.4,1.2-0.5c0.4-0.1,0.9-0.2,1.4-0.2c0.4,0,0.8,0,1.2,0.1s0.8,0.2,1.1,0.4
		c0.3,0.2,0.6,0.4,0.8,0.8c0.2,0.3,0.3,0.8,0.3,1.3v4.6c0,0.3,0,0.6,0.1,0.8c0,0.2,0.2,0.2,0.4,0.2c0.1,0,0.3,0,0.5-0.1V40.8z
		 M60.5,36.1c-0.2,0.1-0.4,0.2-0.7,0.3s-0.6,0.1-1,0.2c-0.3,0-0.7,0.1-1,0.1c-0.3,0.1-0.6,0.1-0.9,0.3c-0.3,0.1-0.5,0.3-0.7,0.5
		C56.1,37.7,56,38,56,38.4c0,0.2,0,0.4,0.1,0.6s0.2,0.3,0.4,0.4c0.2,0.1,0.3,0.2,0.6,0.2c0.2,0,0.4,0.1,0.7,0.1
		c0.5,0,0.9-0.1,1.3-0.2c0.3-0.1,0.6-0.3,0.9-0.5c0.2-0.2,0.4-0.4,0.5-0.7s0.2-0.5,0.2-0.7V36.1z"/>
	<path class="st1" d="M65.9,28.3v12.5h-1.5V28.3H65.9z"/>
	<path class="st1" d="M75,43.4c-0.7,0.7-1.7,1.1-3.2,1.1c-0.4,0-0.8,0-1.3-0.1s-0.8-0.2-1.2-0.5s-0.7-0.5-0.9-0.8
		c-0.2-0.3-0.4-0.8-0.4-1.2h1.5c0,0.3,0.1,0.5,0.3,0.7c0.2,0.2,0.3,0.3,0.6,0.5s0.5,0.2,0.7,0.3c0.3,0.1,0.5,0.1,0.8,0.1
		c0.5,0,0.9-0.1,1.2-0.3c0.3-0.2,0.6-0.4,0.8-0.7c0.2-0.3,0.4-0.7,0.5-1.1s0.1-0.9,0.1-1.4v-0.6h0c-0.3,0.6-0.6,1-1.2,1.2
		c-0.5,0.3-1.1,0.4-1.7,0.4c-0.7,0-1.3-0.1-1.8-0.4c-0.5-0.2-0.9-0.6-1.3-1c-0.3-0.4-0.6-0.9-0.8-1.5c-0.2-0.6-0.3-1.1-0.3-1.8
		c0-0.5,0.1-1.1,0.2-1.7c0.1-0.6,0.4-1.1,0.7-1.5s0.8-0.8,1.3-1.1c0.5-0.3,1.2-0.4,2-0.4c0.6,0,1.1,0.1,1.6,0.4
		c0.5,0.3,0.9,0.6,1.1,1.1h0v-1.3H76V40C76,41.5,75.6,42.6,75,43.4z M73.1,39.3c0.3-0.2,0.6-0.5,0.8-0.8c0.2-0.3,0.4-0.7,0.5-1.1
		c0.1-0.4,0.1-0.8,0.1-1.3c0-0.4,0-0.8-0.1-1.2c-0.1-0.4-0.2-0.7-0.4-1s-0.5-0.6-0.8-0.7c-0.3-0.2-0.7-0.3-1.2-0.3
		c-0.5,0-0.9,0.1-1.2,0.3c-0.3,0.2-0.6,0.4-0.8,0.7s-0.4,0.7-0.5,1s-0.1,0.8-0.1,1.2c0,0.4,0,0.8,0.1,1.2c0.1,0.4,0.2,0.8,0.4,1.1
		c0.2,0.3,0.5,0.6,0.8,0.8c0.3,0.2,0.7,0.3,1.2,0.3S72.7,39.5,73.1,39.3z"/>
	<path class="st1" d="M78,34.4c0.2-0.6,0.5-1.1,0.8-1.5c0.4-0.4,0.8-0.8,1.4-1c0.5-0.2,1.2-0.4,1.9-0.4c0.7,0,1.4,0.1,1.9,0.4
		c0.5,0.2,1,0.6,1.4,1c0.4,0.4,0.7,0.9,0.8,1.5c0.2,0.6,0.3,1.2,0.3,1.9c0,0.7-0.1,1.3-0.3,1.9c-0.2,0.6-0.5,1.1-0.8,1.5
		c-0.4,0.4-0.8,0.8-1.4,1c-0.5,0.2-1.2,0.4-1.9,0.4c-0.7,0-1.3-0.1-1.9-0.4c-0.5-0.2-1-0.6-1.4-1c-0.4-0.4-0.7-0.9-0.8-1.5
		c-0.2-0.6-0.3-1.2-0.3-1.9C77.7,35.6,77.8,35,78,34.4z M79.5,37.8c0.1,0.4,0.3,0.8,0.6,1.1c0.3,0.3,0.6,0.5,0.9,0.7
		c0.3,0.2,0.7,0.2,1.1,0.2c0.4,0,0.7-0.1,1.1-0.2c0.3-0.2,0.6-0.4,0.9-0.7c0.3-0.3,0.5-0.6,0.6-1.1c0.1-0.4,0.2-0.9,0.2-1.5
		c0-0.5-0.1-1-0.2-1.5c-0.1-0.4-0.3-0.8-0.6-1.1c-0.3-0.3-0.6-0.5-0.9-0.7c-0.3-0.2-0.7-0.2-1.1-0.2c-0.4,0-0.7,0.1-1.1,0.2
		c-0.3,0.2-0.6,0.4-0.9,0.7c-0.3,0.3-0.5,0.7-0.6,1.1c-0.1,0.4-0.2,0.9-0.2,1.5C79.3,36.8,79.4,37.3,79.5,37.8z"/>
</g>
</svg>
